<svg width="26" height="20" viewBox="0 0 26 20" fill="none" xmlns="http://www.w3.org/2000/svg">
<path fill-rule="evenodd" clip-rule="evenodd" d="M25.616 0.853526C26.0653 1.37768 26.0046 2.16681 25.4805 2.61609L13.8138 12.6161C13.3457 13.0173 12.6549 13.0173 12.1868 12.6161L0.520145 2.61609C-0.00401306 2.16681 -0.0647144 1.37768 0.384562 0.853526C0.833839 0.329368 1.62296 0.268667 2.14712 0.717944L13.0003 10.0207L23.8535 0.717944C24.3776 0.268666 25.1668 0.329368 25.616 0.853526ZM25.6159 7.52052C26.0651 8.04468 26.0044 8.8338 25.4803 9.28308L13.8136 19.2831C13.3455 19.6843 12.6548 19.6843 12.1866 19.2831L0.519972 9.28308C-0.00418472 8.8338 -0.064888 8.04468 0.38439 7.52052C0.833666 6.99636 1.62279 6.93566 2.14695 7.38494L13.0001 16.6877L23.8533 7.38494C24.3775 6.93566 25.1666 6.99636 25.6159 7.52052Z" fill="#A3ACBA"/>
</svg>
