<svg width="32" height="29" viewBox="0 0 32 29" fill="none" xmlns="http://www.w3.org/2000/svg">
<path fill-rule="evenodd" clip-rule="evenodd" d="M0.901247 0.15867C0.490117 0.36738 0.174169 0.798654 0.0664071 1.29845C0.00627293 1.57725 -0.0106515 5.06991 0.00612313 13.7429L0.029413 25.7997L0.198208 26.2429C0.656217 27.4454 1.71257 28.417 2.84628 28.6783C3.06106 28.7278 7.94773 28.7547 16.975 28.7559C32.1724 28.7578 31.0274 28.7953 31.5429 28.2798C32.1209 27.7018 32.155 26.7683 31.6208 26.1443C31.0844 25.5175 32.5645 25.5796 17.166 25.5376C9.62176 25.517 3.42112 25.472 3.38682 25.4377C3.35252 25.4034 3.30759 19.9432 3.28699 13.304L3.24955 1.2327L3.06233 0.87092C2.95397 0.661536 2.7392 0.410889 2.5525 0.276018C2.11419 -0.0406788 1.39475 -0.0917518 0.901247 0.15867ZM23.2988 4.95233C22.1143 5.5387 22.0992 7.19168 23.2728 7.80478C23.6156 7.98383 23.7612 8.01401 24.2822 8.01401H24.8911L22.0835 10.8223C20.5394 12.367 19.2549 13.6222 19.2293 13.6119C19.2037 13.6015 18.5327 12.9607 17.7384 12.1879C16.6107 11.0909 16.1939 10.7338 15.8376 10.5595C14.9998 10.1496 13.9799 10.1373 13.0904 10.5263C12.6503 10.7188 12.3655 10.9796 9.66549 13.6624C8.04583 15.2718 6.66687 16.6897 6.60127 16.8132C6.17501 17.6154 6.49672 18.6367 7.29786 19.0245C7.71528 19.2266 8.32359 19.2416 8.68926 19.0588C8.82773 18.9896 10.171 17.7077 11.6743 16.2102L14.4077 13.4875L15.868 14.9062C17.1016 16.1046 17.4149 16.3685 17.8861 16.6065C18.4264 16.8793 18.4686 16.8881 19.234 16.8874C20.5973 16.8861 20.4592 16.986 24.0868 13.3761L27.1759 10.3022V10.9094C27.1759 11.4286 27.2063 11.5746 27.3852 11.9171C27.9995 13.0932 29.6637 13.0742 30.2396 11.8845C30.3898 11.5744 30.396 11.4497 30.3944 8.79538C30.3926 5.70622 30.3841 5.64871 29.8638 5.21002C29.3732 4.79634 29.3523 4.79387 26.3733 4.79395C23.7197 4.79402 23.607 4.79979 23.2988 4.95233Z" fill="#2C5DFF"/>
</svg>
