<svg width="20" height="26" viewBox="0 0 20 26" fill="none" xmlns="http://www.w3.org/2000/svg">
<path fill-rule="evenodd" clip-rule="evenodd" d="M0.852549 0.38396C1.37671 -0.065318 2.16583 -0.00461609 2.61511 0.519541L12.6151 12.1862C13.0163 12.6543 13.0163 13.3451 12.6151 13.8132L2.61511 25.4799C2.16583 26.004 1.37671 26.0647 0.852549 25.6154C0.328392 25.1662 0.26769 24.377 0.716968 23.8529L10.0197 12.9997L0.716968 2.14652C0.26769 1.62236 0.328392 0.833238 0.852549 0.38396ZM7.51954 0.384133C8.0437 -0.0651447 8.83282 -0.00444284 9.2821 0.519714L19.2821 12.1864C19.6833 12.6545 19.6833 13.3452 19.2821 13.8134L9.2821 25.48C8.83282 26.0042 8.0437 26.0649 7.51954 25.6156C6.99538 25.1663 6.93468 24.3772 7.38396 23.8531L16.6867 12.9999L7.38396 2.14669C6.93468 1.62254 6.99538 0.833411 7.51954 0.384133Z" fill="#A3ACBA"/>
</svg>
