<svg width="16" height="17" viewBox="0 0 16 17" fill="none" xmlns="http://www.w3.org/2000/svg">
<path fill-rule="evenodd" clip-rule="evenodd" d="M10.1633 3.55344C7.53194 3.55344 5.44162 5.45709 5.44162 8.28462C5.44162 11.1982 7.61539 13.4459 10.1633 13.4459C10.8025 13.4459 11.4115 13.3074 11.9681 13.0554C12.0713 13.006 12.1834 12.9777 12.2977 12.9721C12.412 12.9666 12.5263 12.9839 12.6338 13.023C12.7414 13.0622 12.84 13.1224 12.924 13.2002C13.0079 13.278 13.0755 13.3717 13.1228 13.476C13.1701 13.5802 13.1961 13.6928 13.1993 13.8072C13.2025 13.9216 13.1828 14.0355 13.1415 14.1422C13.1001 14.2489 13.0379 14.3463 12.9584 14.4287C12.8789 14.511 12.7838 14.5767 12.6786 14.6218C11.8884 14.9799 11.0309 15.1655 10.1633 15.1663C6.54528 15.1663 3.72119 12.0223 3.72119 8.28462C3.72119 4.46096 6.62872 1.83301 10.1633 1.83301C11.2271 1.83358 12.2519 2.17021 13.2378 2.8429C13.3345 2.90501 13.4178 2.98588 13.4827 3.08072C13.5477 3.17557 13.593 3.28248 13.6159 3.39512C13.6388 3.50776 13.639 3.62386 13.6163 3.73655C13.5936 3.84924 13.5485 3.95625 13.4838 4.05123C13.419 4.14622 13.3359 4.22727 13.2393 4.28959C13.1427 4.35191 13.0346 4.39423 12.9214 4.41407C12.8082 4.4339 12.6921 4.43083 12.5801 4.40506C12.468 4.37928 12.3623 4.33131 12.2691 4.26398C11.5319 3.76161 10.8386 3.55344 10.1633 3.55344Z" fill="#686F7B"/>
<path fill-rule="evenodd" clip-rule="evenodd" d="M2.00049 6.994C2.00049 6.76586 2.09112 6.54706 2.25244 6.38574C2.41376 6.22442 2.63256 6.13379 2.8607 6.13379H10.6026C10.8308 6.13379 11.0496 6.22442 11.2109 6.38574C11.3722 6.54706 11.4629 6.76586 11.4629 6.994C11.4629 7.22215 11.3722 7.44095 11.2109 7.60227C11.0496 7.76359 10.8308 7.85422 10.6026 7.85422H2.8607C2.63256 7.85422 2.41376 7.76359 2.25244 7.60227C2.09112 7.44095 2.00049 7.22215 2.00049 6.994ZM2.00049 10.0048C2.00049 9.77661 2.09112 9.55781 2.25244 9.39649C2.41376 9.23517 2.63256 9.14454 2.8607 9.14454H9.74242C9.97057 9.14454 10.1894 9.23517 10.3507 9.39649C10.512 9.55781 10.6026 9.77661 10.6026 10.0048C10.6026 10.2329 10.512 10.4517 10.3507 10.613C10.1894 10.7743 9.97057 10.865 9.74242 10.865H2.8607C2.63256 10.865 2.41376 10.7743 2.25244 10.613C2.09112 10.4517 2.00049 10.2329 2.00049 10.0048Z" fill="#686F7B"/>
</svg>
