<svg width="32" height="26" viewBox="0 0 32 26" fill="none" xmlns="http://www.w3.org/2000/svg">
<path d="M16.17 4.2602L11.33 8.1802C10.525 8.8302 10.37 10.0002 10.98 10.8352C11.625 11.7252 12.88 11.9002 13.745 11.2252L18.71 7.3652C19.06 7.0952 19.56 7.1552 19.835 7.5052C20.11 7.8552 20.045 8.3552 19.695 8.6302L18.65 9.4402L25.6 15.8402V6.4002H25.565L25.37 6.2752L21.74 3.9502C20.975 3.4602 20.08 3.2002 19.17 3.2002C18.08 3.2002 17.02 3.5752 16.17 4.2602ZM17.31 10.4802L14.725 12.4902C13.15 13.7202 10.865 13.4002 9.685 11.7802C8.575 10.2552 8.855 8.1252 10.32 6.9402L14.48 3.5752C13.9 3.3302 13.275 3.2052 12.64 3.2052C11.7 3.2002 10.785 3.4802 10 4.0002L6.4 6.4002V17.6002H7.81L12.38 21.7702C13.36 22.6652 14.875 22.5952 15.77 21.6152C16.045 21.3102 16.23 20.9552 16.325 20.5852L17.175 21.3652C18.15 22.2602 19.67 22.1952 20.565 21.2202C20.79 20.9752 20.955 20.6902 21.06 20.3952C22.03 21.0452 23.35 20.9102 24.165 20.0202C25.06 19.0452 24.995 17.5252 24.02 16.6302L17.31 10.4802ZM0.8 6.4002C0.36 6.4002 0 6.7602 0 7.2002V17.6002C0 18.4852 0.715 19.2002 1.6 19.2002H3.2C4.085 19.2002 4.8 18.4852 4.8 17.6002V6.4002H0.8ZM2.4 16.0002C2.61217 16.0002 2.81566 16.0845 2.96569 16.2345C3.11571 16.3845 3.2 16.588 3.2 16.8002C3.2 17.0124 3.11571 17.2159 2.96569 17.3659C2.81566 17.5159 2.61217 17.6002 2.4 17.6002C2.18783 17.6002 1.98434 17.5159 1.83431 17.3659C1.68429 17.2159 1.6 17.0124 1.6 16.8002C1.6 16.588 1.68429 16.3845 1.83431 16.2345C1.98434 16.0845 2.18783 16.0002 2.4 16.0002ZM27.2 6.4002V17.6002C27.2 18.4852 27.915 19.2002 28.8 19.2002H30.4C31.285 19.2002 32 18.4852 32 17.6002V7.2002C32 6.7602 31.64 6.4002 31.2 6.4002H27.2ZM28.8 16.8002C28.8 16.588 28.8843 16.3845 29.0343 16.2345C29.1843 16.0845 29.3878 16.0002 29.6 16.0002C29.8122 16.0002 30.0157 16.0845 30.1657 16.2345C30.3157 16.3845 30.4 16.588 30.4 16.8002C30.4 17.0124 30.3157 17.2159 30.1657 17.3659C30.0157 17.5159 29.8122 17.6002 29.6 17.6002C29.3878 17.6002 29.1843 17.5159 29.0343 17.3659C28.8843 17.2159 28.8 17.0124 28.8 16.8002Z" fill="#2C5DFF"/>
</svg>
