<svg width="120" height="20" viewBox="0 0 120 20" fill="none" xmlns="http://www.w3.org/2000/svg">
<path d="M34.7548 6.91803V13.4754C34.7548 14.7798 34.2366 16.0307 33.3143 16.953C32.392 17.8753 31.1411 18.3934 29.8367 18.3934H18.3613V15.1148H29.8367C30.2715 15.1148 30.6885 14.942 30.9959 14.6346C31.3034 14.3272 31.4761 13.9102 31.4761 13.4754V6.91803C31.4761 6.48325 31.3034 6.06628 30.9959 5.75884C30.6885 5.4514 30.2715 5.27869 29.8367 5.27869H21.64V11.8361H18.3613V2H29.8367C31.1411 2 32.392 2.51815 33.3143 3.44046C34.2366 4.36277 34.7548 5.61369 34.7548 6.91803Z" fill="#12100B"/>
<path d="M41.3119 2H38.0332V18.3934H41.3119V2Z" fill="#12100B"/>
<path d="M60.9833 2V5.27869H54.4259V18.3934H51.1472V5.27869H44.5898V2H60.9833Z" fill="#F08100"/>
<path d="M113.443 8.55738V11.8361H106.886V18.3934H103.607V2H106.886V8.55738H113.443ZM116.722 2V18.3934H120.001V2H116.722Z" fill="#F08100"/>
<path d="M100.327 15.1148V18.3934H88.8516C87.5473 18.3934 86.2964 17.8753 85.3741 16.953C84.4517 16.0307 83.9336 14.7798 83.9336 13.4754V8.55738H87.2123V13.4754C87.2123 13.9102 87.385 14.3272 87.6924 14.6346C87.9999 14.942 88.4168 15.1148 88.8516 15.1148H100.327ZM100.327 5.27869V2H88.8516C87.8345 1.99987 86.8424 2.31511 86.0118 2.9023C85.1813 3.48949 84.5533 4.31973 84.2143 5.27869H100.327Z" fill="#F08100"/>
<path d="M67.5404 11.8361V13.4754C67.5404 13.9102 67.7131 14.3272 68.0206 14.6346C68.328 14.942 68.745 15.1148 69.1798 15.1148H80.6552V18.3934H69.1798C67.8754 18.3934 66.6245 17.8753 65.7022 16.953C64.7799 16.0307 64.2617 14.7798 64.2617 13.4754V8.55738H80.6552V11.8361H67.5404ZM80.6552 5.27869V2H69.1798C68.1626 1.99987 67.1705 2.31511 66.34 2.9023C65.5094 3.48949 64.8814 4.31973 64.5424 5.27869H80.6552Z" fill="#F08100"/>
<path d="M5.39629 12.7469L8.19695 5.27869L10.0737 10.2833C10.9622 9.93033 11.8757 9.64407 12.8068 9.42689L9.83629 2H6.54908L0.787109 16.4184C1.42842 15.8085 2.2717 15.0564 3.28416 14.2643C3.89859 13.7849 4.60809 13.2656 5.39629 12.7469Z" fill="#12100B"/>
<path d="M0 18.3935C0 18.3935 5.73771 11.8361 13.1148 10.1968L15.082 15.1148C4.51672 15.1148 0 18.3935 0 18.3935Z" fill="#F08100"/>
</svg>
