<svg width="20" height="21" viewBox="0 0 20 21" fill="none" xmlns="http://www.w3.org/2000/svg">
<path d="M18.3337 14.5999V17.0999C18.3346 17.332 18.2871 17.5617 18.1941 17.7744C18.1011 17.987 17.9648 18.1779 17.7937 18.3348C17.6227 18.4917 17.4208 18.6112 17.201 18.6855C16.9811 18.7599 16.7482 18.7875 16.517 18.7666C13.9527 18.488 11.4895 17.6117 9.32535 16.2083C7.31187 14.9288 5.6048 13.2217 4.32535 11.2083C2.917 9.03426 2.04055 6.55908 1.76702 3.98325C1.74619 3.75281 1.77358 3.52055 1.84743 3.30127C1.92129 3.08199 2.03999 2.88049 2.19599 2.7096C2.35199 2.53871 2.54186 2.40218 2.75351 2.30869C2.96517 2.2152 3.19397 2.1668 3.42535 2.16658H5.92535C6.32977 2.1626 6.72184 2.30582 7.02849 2.56953C7.33513 2.83324 7.53542 3.19946 7.59202 3.59992C7.69754 4.39997 7.89323 5.18552 8.17535 5.94158C8.28747 6.23985 8.31174 6.56401 8.24527 6.87565C8.17881 7.18729 8.0244 7.47334 7.80035 7.69992L6.74202 8.75825C7.92831 10.8445 9.65573 12.572 11.742 13.7583L12.8004 12.6999C13.0269 12.4759 13.313 12.3215 13.6246 12.255C13.9363 12.1885 14.2604 12.2128 14.5587 12.3249C15.3147 12.607 16.1003 12.8027 16.9004 12.9083C17.3052 12.9654 17.6749 13.1693 17.9391 13.4812C18.2034 13.7931 18.3438 14.1912 18.3337 14.5999Z" stroke="#F08100" stroke-width="1.5" stroke-linecap="round" stroke-linejoin="round"/>
</svg>
