<svg width="15" height="16" viewBox="0 0 15 16" fill="none" xmlns="http://www.w3.org/2000/svg">
<path d="M7.5 13.625C10.6066 13.625 13.125 11.1066 13.125 8C13.125 4.8934 10.6066 2.375 7.5 2.375C4.3934 2.375 1.875 4.8934 1.875 8C1.875 11.1066 4.3934 13.625 7.5 13.625Z" stroke="#707070" stroke-width="1.5" stroke-miterlimit="10"/>
<path d="M12.5485 10.4824L9.36769 8.52607C9.31193 8.49178 9.24961 8.46955 9.18474 8.4608L7.84771 8.28057C7.74731 8.26704 7.64523 8.28639 7.55675 8.33574C7.46828 8.38509 7.39817 8.46177 7.35693 8.55431L6.55427 10.3554C6.51694 10.4391 6.505 10.532 6.51992 10.6225C6.53485 10.713 6.57598 10.7971 6.63823 10.8644L7.73979 12.0559C7.78973 12.1099 7.82625 12.1749 7.84641 12.2457C7.86657 12.3164 7.86979 12.3909 7.85582 12.4631L7.63144 13.6231C8.76588 13.56 11.3375 12.8437 12.5485 10.4824Z" fill="#707070" stroke="#707070" stroke-linecap="round" stroke-linejoin="round"/>
<path d="M8.93252 2.55979L9.47942 3.53938C9.53112 3.63199 9.54989 3.73939 9.53265 3.84404C9.51542 3.94869 9.46321 4.0444 9.38455 4.11554L7.80774 5.54157C7.78098 5.56577 7.75151 5.58681 7.71993 5.60425L7.00264 6.00036C6.93325 6.03868 6.85529 6.05877 6.77603 6.05877H5.52533C5.43309 6.05877 5.34291 6.08598 5.26607 6.137C5.18923 6.18801 5.12914 6.26055 5.09334 6.34555L4.60542 7.50385" fill="#707070"/>
<path d="M3.80524 3.75844L3.28116 4.99769C3.23443 5.10818 3.23185 5.23239 3.27394 5.34473L3.94723 7.1417C3.9748 7.21528 4.02043 7.28076 4.07992 7.3321C4.13941 7.38344 4.21086 7.419 4.28768 7.43551L5.54334 7.70539C5.61302 7.72037 5.67836 7.75103 5.7344 7.79505C5.79045 7.83908 5.83571 7.8953 5.86676 7.95944L6.08975 8.42011C6.12813 8.49938 6.18806 8.56624 6.26268 8.61303C6.3373 8.65981 6.4236 8.68462 6.51167 8.68462H7.29873" fill="#707070"/>
<path d="M8.93252 2.55979L9.47942 3.53938C9.53112 3.63199 9.54989 3.73939 9.53265 3.84404C9.51542 3.94869 9.46321 4.0444 9.38455 4.11554L7.80774 5.54157C7.78098 5.56577 7.75151 5.58681 7.71993 5.60425L7.00264 6.00036C6.93325 6.03868 6.85529 6.05877 6.77603 6.05877H5.52533C5.43309 6.05877 5.34291 6.08598 5.26607 6.137C5.18923 6.18801 5.12914 6.26055 5.09334 6.34555L4.60542 7.50385L4.28768 7.43551C4.21086 7.419 4.13941 7.38344 4.07992 7.3321C4.02043 7.28076 3.9748 7.21528 3.94723 7.1417L3.27394 5.34473C3.23185 5.23239 3.23443 5.10818 3.28116 4.99769L3.80524 3.75844C4.42952 3.10789 6.32898 1.95737 8.93252 2.55979Z" fill="#707070"/>
<path d="M4.28768 7.43551C4.21086 7.419 4.13941 7.38344 4.07992 7.3321C4.02043 7.28076 3.9748 7.21528 3.94723 7.1417L3.27394 5.34473C3.23185 5.23239 3.23443 5.10818 3.28116 4.99769L3.80524 3.75844C4.42952 3.10789 6.32898 1.95737 8.93252 2.55979L9.47942 3.53938C9.53112 3.63199 9.54989 3.73939 9.53265 3.84404C9.51542 3.94869 9.46321 4.0444 9.38455 4.11554L7.80774 5.54157C7.78098 5.56577 7.75151 5.58681 7.71993 5.60425L7.00264 6.00036C6.93325 6.03868 6.85529 6.05877 6.77603 6.05877H5.52533C5.43309 6.05877 5.34291 6.08598 5.26607 6.137C5.18923 6.18801 5.12914 6.26055 5.09334 6.34555L4.60542 7.50385L4.28768 7.43551ZM4.28768 7.43551L5.54334 7.70539C5.61302 7.72037 5.67836 7.75103 5.7344 7.79505C5.79045 7.83908 5.83571 7.8953 5.86676 7.95944L6.08975 8.42011C6.12813 8.49938 6.18806 8.56624 6.26268 8.61303C6.3373 8.65981 6.4236 8.68462 6.51167 8.68462H7.29873" stroke="#707070" stroke-linecap="round" stroke-linejoin="round"/>
</svg>
