<svg width="34" height="35" viewBox="0 0 34 35" fill="none" xmlns="http://www.w3.org/2000/svg">
<g clip-path="url(#clip0_3001_5113)">
<path d="M16.6752 12.1809C18.8813 12.0653 20.5759 10.1831 20.4603 7.97701C20.3447 5.7709 18.4626 4.07622 16.2565 4.19184C14.0504 4.30745 12.3557 6.18959 12.4713 8.3957C12.5869 10.6018 14.469 12.2965 16.6752 12.1809ZM16.6752 12.1809L17.6521 30.822M17.6521 30.822C14.1207 31.007 10.6605 29.7817 8.03254 27.4155C5.40461 25.0493 3.82429 21.7361 3.63922 18.2047L7.63374 17.9954M17.6521 30.822C21.1835 30.6369 24.4967 29.0566 26.8629 26.4286C29.2291 23.8007 30.4544 20.3405 30.2693 16.8091L26.2748 17.0184" stroke="#2C5DFF" stroke-width="4" stroke-linecap="round" stroke-linejoin="round"/>
</g>
<defs>
<clipPath id="clip0_3001_5113">
<rect width="32" height="32" fill="white" transform="translate(0.138672 2.36621) rotate(-3)"/>
</clipPath>
</defs>
</svg>
