<svg width="25" height="25" viewBox="0 0 25 25" fill="none" xmlns="http://www.w3.org/2000/svg">
<path d="M16.5 21.5V5.5C16.5 4.96957 16.2893 4.46086 15.9142 4.08579C15.5391 3.71071 15.0304 3.5 14.5 3.5H10.5C9.96957 3.5 9.46086 3.71071 9.08579 4.08579C8.71071 4.46086 8.5 4.96957 8.5 5.5V21.5M4.5 7.5H20.5C21.6046 7.5 22.5 8.39543 22.5 9.5V19.5C22.5 20.6046 21.6046 21.5 20.5 21.5H4.5C3.39543 21.5 2.5 20.6046 2.5 19.5V9.5C2.5 8.39543 3.39543 7.5 4.5 7.5Z" stroke="#FEFEFE" stroke-width="2.125" stroke-linecap="round" stroke-linejoin="round"/>
</svg>
