<svg width="32" height="32" viewBox="0 0 32 32" fill="none" xmlns="http://www.w3.org/2000/svg">
<path fill-rule="evenodd" clip-rule="evenodd" d="M20.3267 6.10785C15.0639 6.10785 10.8832 9.91516 10.8832 15.5702C10.8832 21.3973 15.2308 25.8928 20.3267 25.8928C21.605 25.8928 22.823 25.6158 23.9361 25.1117C24.1426 25.0129 24.3667 24.9563 24.5954 24.9452C24.824 24.9341 25.0525 24.9687 25.2676 25.0471C25.4827 25.1254 25.68 25.2459 25.8479 25.4014C26.0158 25.557 26.151 25.7445 26.2456 25.9529C26.3402 26.1614 26.3922 26.3866 26.3986 26.6154C26.405 26.8442 26.3657 27.072 26.2829 27.2854C26.2002 27.4989 26.0757 27.6936 25.9168 27.8583C25.7578 28.023 25.5676 28.1544 25.3572 28.2446C23.7768 28.9608 22.0618 29.3321 20.3267 29.3337C13.0906 29.3337 7.44238 23.0455 7.44238 15.5702C7.44238 7.92291 13.2574 2.66699 20.3267 2.66699C22.4543 2.66814 24.5039 3.3414 26.4755 4.68678C26.669 4.811 26.8356 4.97273 26.9655 5.16243C27.0954 5.35212 27.1859 5.56593 27.2318 5.79121C27.2777 6.0165 27.2779 6.2487 27.2325 6.47408C27.1872 6.69947 27.0971 6.91347 26.9676 7.10345C26.8381 7.29342 26.6718 7.45552 26.4786 7.58016C26.2854 7.70479 26.0692 7.78945 25.8428 7.82911C25.6163 7.86877 25.3842 7.86265 25.1601 7.81109C24.9361 7.75953 24.7246 7.66359 24.5383 7.52893C23.0639 6.5242 21.6772 6.10785 20.3267 6.10785Z" fill="#2C5DFF"/>
<path fill-rule="evenodd" clip-rule="evenodd" d="M4.00098 12.99C4.00098 12.5337 4.18224 12.0961 4.50488 11.7734C4.82752 11.4508 5.26512 11.2695 5.72141 11.2695H21.2053C21.6616 11.2695 22.0992 11.4508 22.4218 11.7734C22.7444 12.0961 22.9257 12.5337 22.9257 12.99C22.9257 13.4462 22.7444 13.8838 22.4218 14.2065C22.0992 14.5291 21.6616 14.7104 21.2053 14.7104H5.72141C5.26512 14.7104 4.82752 14.5291 4.50488 14.2065C4.18224 13.8838 4.00098 13.4462 4.00098 12.99ZM4.00098 19.0115C4.00098 18.5552 4.18224 18.1176 4.50488 17.7949C4.82752 17.4723 5.26512 17.291 5.72141 17.291H19.4848C19.9411 17.291 20.3787 17.4723 20.7014 17.7949C21.024 18.1176 21.2053 18.5552 21.2053 19.0115C21.2053 19.4678 21.024 19.9054 20.7014 20.228C20.3787 20.5506 19.9411 20.7319 19.4848 20.7319H5.72141C5.26512 20.7319 4.82752 20.5506 4.50488 20.228C4.18224 19.9054 4.00098 19.4678 4.00098 19.0115Z" fill="#2C5DFF"/>
</svg>
