<svg width="32" height="32" viewBox="0 0 32 32" fill="none" xmlns="http://www.w3.org/2000/svg">
<path d="M27.7871 6.14617C27.1061 5.46484 26.2976 4.92437 25.4076 4.55562C24.5177 4.18687 23.5638 3.99707 22.6005 3.99707C21.6372 3.99707 20.6833 4.18687 19.7933 4.55562C18.9034 4.92437 18.0948 5.46484 17.4138 6.14617L16.0005 7.5595L14.5871 6.14617C13.2116 4.77058 11.3459 3.99778 9.40048 3.99778C7.45511 3.99778 5.58941 4.77058 4.21382 6.14617C2.83823 7.52176 2.06543 9.38746 2.06543 11.3328C2.06543 13.2782 2.83823 15.1439 4.21382 16.5195L5.62715 17.9328L16.0005 28.3062L26.3738 17.9328L27.7871 16.5195C28.4685 15.8385 29.009 15.0299 29.3777 14.14C29.7465 13.25 29.9362 12.2962 29.9362 11.3328C29.9362 10.3695 29.7465 9.41564 29.3777 8.5257C29.009 7.63575 28.4685 6.82718 27.7871 6.14617V6.14617Z" stroke="#2C5DFF" stroke-width="4" stroke-linecap="round" stroke-linejoin="round"/>
</svg>
