<svg width="24" height="24" viewBox="0 0 24 24" fill="none" xmlns="http://www.w3.org/2000/svg">
<g clip-path="url(#clip0_3001_5020)">
<path fill-rule="evenodd" clip-rule="evenodd" d="M20.5031 3.50437C18.2473 1.24567 15.2471 0.00114597 12.0504 0C5.4634 0 0.102564 5.36027 0.100272 11.949C0.099126 14.0553 0.649764 16.1111 1.69546 17.9229L0 24.1157L6.33491 22.4541C8.0802 23.4064 10.0455 23.9077 12.0453 23.9083H12.0504C18.6363 23.9083 23.9977 18.5475 24 11.9587C24.0011 8.76553 22.7595 5.76365 20.5031 3.50494V3.50437ZM12.0504 21.8903H12.0464C10.2644 21.8897 8.51627 21.4107 6.991 20.5059L6.62828 20.2905L2.86893 21.2766L3.87223 17.6112L3.63615 17.2353C2.64203 15.6539 2.1166 13.8261 2.11775 11.9496C2.12004 6.47357 6.57556 2.01805 12.0545 2.01805C14.7073 2.01919 17.201 3.05343 19.0763 4.9311C20.9517 6.8082 21.9837 9.30413 21.9825 11.9576C21.9802 17.4342 17.5247 21.8897 12.0504 21.8897V21.8903ZM17.4983 14.4518C17.1998 14.3023 15.7319 13.5803 15.4579 13.4806C15.1841 13.3809 14.9853 13.3311 14.7864 13.6301C14.5876 13.9293 14.0152 14.6019 13.841 14.8007C13.6668 15.0001 13.4926 15.0248 13.1941 14.8752C12.8956 14.7257 11.9335 14.4105 10.7927 13.3935C9.9052 12.6016 9.3058 11.6241 9.13167 11.325C8.95747 11.0259 9.11333 10.8643 9.26227 10.7159C9.39633 10.5819 9.5608 10.367 9.71033 10.1928C9.85993 10.0186 9.9092 9.89373 10.0089 9.69487C10.1086 9.49547 10.0587 9.32133 9.98427 9.17173C9.90973 9.0222 9.31273 7.55247 9.06347 6.95487C8.82107 6.37273 8.57473 6.4518 8.39193 6.44206C8.21773 6.43346 8.01893 6.43175 7.81953 6.43175C7.62013 6.43175 7.29693 6.50623 7.02307 6.80533C6.7492 7.1044 5.97794 7.82693 5.97794 9.29607C5.97794 10.7652 7.04773 12.1857 7.19727 12.3851C7.3468 12.5845 9.30293 15.6001 12.2979 16.8939C13.0102 17.2015 13.5665 17.3855 14.0003 17.523C14.7154 17.7505 15.3663 17.7184 15.8808 17.6416C16.4544 17.5557 17.6473 16.9191 17.896 16.2217C18.1447 15.5244 18.1447 14.9262 18.0702 14.8019C17.9957 14.6775 17.7963 14.6025 17.4978 14.4529L17.4983 14.4518Z" fill="#FEFEFE"/>
</g>
<defs>
<clipPath id="clip0_3001_5020">
<rect width="24" height="24" fill="white"/>
</clipPath>
</defs>
</svg>
