<svg width="28" height="38" viewBox="0 0 28 38" fill="none" xmlns="http://www.w3.org/2000/svg">
<path fill-rule="evenodd" clip-rule="evenodd" d="M1.19513 1.33833C1.92895 0.709336 3.03373 0.794319 3.66271 1.52814L17.6627 17.8615C18.2244 18.5168 18.2244 19.4839 17.6627 20.1392L3.66272 36.4726C3.03373 37.2064 1.92895 37.2914 1.19513 36.6624C0.461311 36.0334 0.376328 34.9286 1.00532 34.1948L14.0291 19.0004L1.00532 3.80591C0.376328 3.07209 0.461311 1.96731 1.19513 1.33833ZM10.5289 1.33857C11.2627 0.709579 12.3675 0.794561 12.9965 1.52838L26.9965 17.8617C27.5582 18.5171 27.5582 19.4841 26.9965 20.1395L12.9965 36.4728C12.3675 37.2066 11.2627 37.2916 10.5289 36.6626C9.7951 36.0336 9.71012 34.9289 10.3391 34.195L23.3629 19.0006L10.3391 3.80615C9.71012 3.07233 9.7951 1.96756 10.5289 1.33857Z" fill="#F08100"/>
</svg>
