<svg width="24" height="25" viewBox="0 0 24 25" fill="none" xmlns="http://www.w3.org/2000/svg">
<path fill-rule="evenodd" clip-rule="evenodd" d="M15.2453 5.07967C11.2982 5.07967 8.16268 7.93515 8.16268 12.1764C8.16268 16.5468 11.4233 19.9184 15.2453 19.9184C16.204 19.9184 17.1175 19.7106 17.9524 19.3326C18.1072 19.2585 18.2753 19.216 18.4468 19.2077C18.6182 19.1993 18.7897 19.2253 18.951 19.2841C19.1123 19.3428 19.2602 19.4332 19.3862 19.5498C19.5121 19.6665 19.6135 19.8071 19.6844 19.9635C19.7554 20.1198 19.7944 20.2887 19.7992 20.4603C19.804 20.6319 19.7745 20.8028 19.7125 20.9629C19.6504 21.1229 19.557 21.269 19.4378 21.3925C19.3186 21.5161 19.1759 21.6146 19.0182 21.6822C17.8328 22.2194 16.5466 22.4978 15.2453 22.499C9.81816 22.499 5.58203 17.7829 5.58203 12.1764C5.58203 6.44096 9.94332 2.49902 15.2453 2.49902C16.841 2.49988 18.3782 3.00483 19.8569 4.01386C20.002 4.10703 20.1269 4.22833 20.2243 4.3706C20.3218 4.51287 20.3897 4.67322 20.4241 4.84219C20.4585 5.01115 20.4587 5.1853 20.4247 5.35434C20.3906 5.52338 20.323 5.68388 20.2259 5.82636C20.1288 5.96885 20.0041 6.09042 19.8592 6.1839C19.7143 6.27737 19.5522 6.34086 19.3823 6.37061C19.2125 6.40036 19.0384 6.39576 18.8704 6.3571C18.7023 6.31843 18.5437 6.24647 18.404 6.14548C17.2982 5.39193 16.2582 5.07967 15.2453 5.07967Z" fill="#F08100"/>
<path fill-rule="evenodd" clip-rule="evenodd" d="M3 10.2415C3 9.89928 3.13594 9.57108 3.37793 9.3291C3.61991 9.08712 3.94811 8.95117 4.29032 8.95117H15.9032C16.2454 8.95117 16.5736 9.08712 16.8156 9.3291C17.0576 9.57108 17.1935 9.89928 17.1935 10.2415C17.1935 10.5837 17.0576 10.9119 16.8156 11.1539C16.5736 11.3959 16.2454 11.5318 15.9032 11.5318H4.29032C3.94811 11.5318 3.61991 11.3959 3.37793 11.1539C3.13594 10.9119 3 10.5837 3 10.2415ZM3 14.7576C3 14.4154 3.13594 14.0872 3.37793 13.8452C3.61991 13.6032 3.94811 13.4673 4.29032 13.4673H14.6129C14.9551 13.4673 15.2833 13.6032 15.5253 13.8452C15.7673 14.0872 15.9032 14.4154 15.9032 14.7576C15.9032 15.0998 15.7673 15.428 15.5253 15.67C15.2833 15.912 14.9551 16.0479 14.6129 16.0479H4.29032C3.94811 16.0479 3.61991 15.912 3.37793 15.67C3.13594 15.428 3 15.0998 3 14.7576Z" fill="#F08100"/>
</svg>
