<svg width="200" height="37" viewBox="0 0 200 37" fill="none" xmlns="http://www.w3.org/2000/svg">
<g clip-path="url(#clip0_3001_631)">
<path d="M58.2759 8.40054V19.3051C58.2759 23.8143 54.6122 27.4781 50.103 27.4781H31.0254V22.0367H50.103C51.5988 22.0367 52.8345 20.8226 52.8345 19.3051V8.40054C52.8345 6.90468 51.6205 5.66898 50.103 5.66898H36.4885V16.5735H31.0471V0.227539H50.1246C54.6339 0.227539 58.2759 3.8913 58.2759 8.40054Z" fill="black"/>
<path d="M69.1797 0.227539H63.7383V27.4781H69.1797V0.227539Z" fill="black"/>
<path d="M101.873 0.227539V5.66898H90.9905V27.4781H85.5274V5.66898H74.6445V0.227539H101.873Z" fill="#F08100"/>
<path d="M189.067 11.1321V16.5735H178.162V27.4781H172.721V0.227539H178.162V11.1321H189.067ZM194.53 27.4781H199.971V0.227539H194.53V27.4781Z" fill="#F08100"/>
<path d="M167.278 22.015V27.4781H148.2C143.691 27.4781 140.027 23.8143 140.027 19.3051V11.1321H145.469V19.3051C145.469 20.801 146.683 22.0367 148.2 22.0367H167.278V22.015ZM167.278 5.66898V0.227539H148.2C144.645 0.227539 141.61 2.50384 140.483 5.66898H167.278Z" fill="#F08100"/>
<path d="M112.777 16.5735V19.3051C112.777 20.801 113.991 22.0367 115.509 22.0367H134.587V27.4781H115.509C111 27.4781 107.336 23.8143 107.336 19.3051V11.1321H134.587V16.5735H112.777ZM134.587 5.66898V0.227539H115.509C111.954 0.227539 108.919 2.50384 107.791 5.66898H134.587Z" fill="#F08100"/>
<path d="M9.4986 18.0911L14.1596 5.66898L17.2814 13.9937C18.7339 13.4301 20.2514 12.9315 21.834 12.5629L16.8912 0.227539H11.4064L1.82422 24.1829C2.88649 23.164 4.29563 21.9283 5.96492 20.6058C7.00551 19.8037 8.17618 18.9582 9.4986 18.0911Z" fill="black"/>
<path d="M0.523438 27.4777C0.523438 27.4777 10.0622 16.5732 22.3109 13.8633L25.5844 22.0363C8.02439 22.0146 0.523438 27.4777 0.523438 27.4777Z" fill="#F08100"/>
<path d="M2.69115 34.1123C2.66947 33.9388 2.51772 33.657 2.04078 33.657C1.71559 33.657 1.52048 33.8521 1.52048 34.0472C1.52048 34.2207 1.62887 34.3507 1.9107 34.3941L2.431 34.4808C3.16809 34.6109 3.55831 35.0661 3.55831 35.5864C3.55831 36.1501 3.05969 36.7354 2.12749 36.7354C1.06522 36.7354 0.609959 36.0851 0.544922 35.5648L1.32537 35.3913C1.36873 35.7165 1.6072 36.02 2.12749 36.02C2.47436 36.02 2.66947 35.8683 2.66947 35.6298C2.66947 35.4347 2.51772 35.3046 2.25757 35.2613L1.73727 35.1745C1.0869 35.0661 0.674997 34.6326 0.674997 34.0906C0.674997 33.3969 1.32537 32.9199 2.06245 32.9199C3.03801 32.9199 3.38488 33.4619 3.47159 33.8955L2.69115 34.1123Z" fill="black"/>
<path d="M9.91013 33.0059H9.04297V36.6696H9.91013V33.0059Z" fill="black"/>
<path d="M19.188 36.6696V34.2416L18.1691 36.6696H17.4753L16.4564 34.2632V36.6696H15.6543V33.0059H16.7816L17.8439 35.4773L18.8411 33.0059H20.0335V36.6696H19.188Z" fill="black"/>
<path d="M26.6465 35.3472V36.6696H25.7793V33.0059H27.2318C28.0122 33.0059 28.5542 33.5045 28.5542 34.1765C28.5542 34.8703 28.0122 35.3472 27.2318 35.3472H26.6465ZM27.1451 34.6318C27.4703 34.6318 27.6871 34.4584 27.6871 34.1765C27.6871 33.873 27.4703 33.6996 27.1451 33.6996H26.6465V34.6318H27.1451Z" fill="black"/>
<path d="M34.0391 36.6696V33.0059H36.4888V33.7646H34.8845V34.4584H36.337V35.1738H34.8845V35.8892H36.4888V36.6696H34.0391Z" fill="black"/>
<path d="M42.125 36.6696V33.0059H42.9922V35.8892H44.6615V36.6696H42.125Z" fill="black"/>
<path d="M54.4188 33.0059H55.3076L54.2671 36.6696H53.3782L52.5544 34.2416L51.7089 36.6696H50.8201L49.7578 33.0059H50.6683L51.3187 35.3472L52.1208 33.0059H53.0097L53.8118 35.3472L54.4188 33.0059Z" fill="black"/>
<path d="M60.7051 36.6696V33.0059H63.1548V33.7646H61.5506V34.4584H63.0031V35.1738H61.5506V35.8892H63.1548V36.6696H60.7051Z" fill="black"/>
<path d="M71.6528 36.6702L71.5878 36.3017C71.4144 36.5401 71.0458 36.7569 70.5038 36.7569C69.4199 36.7569 68.5527 35.9982 68.5527 34.8492C68.5527 33.7002 69.4849 32.9414 70.5689 32.9414C71.6745 32.9414 72.1948 33.5701 72.3682 34.0687L71.5444 34.3505C71.4794 34.1338 71.2193 33.7002 70.5906 33.7002C70.0703 33.7002 69.4416 34.0254 69.4416 34.8492C69.4416 35.6079 69.9836 36.0198 70.6122 36.0198C71.2409 36.0198 71.5228 35.6296 71.5661 35.4128H70.3955V34.7191H72.3682V36.6702H71.6528Z" fill="black"/>
<path d="M88.4753 35.911H86.9795L86.6976 36.6481H85.7871L87.2396 32.9844H88.2368L89.6677 36.6481H88.7571L88.4753 35.911ZM87.2613 35.174H88.1935L87.7382 33.9166L87.2613 35.174Z" fill="black"/>
<path d="M95.0879 36.6696V33.0059H95.9334V35.8892H97.6027V36.6696H95.0879Z" fill="black"/>
<path d="M104.8 33.7863V36.6696H103.954V33.7863H102.762V33.0059H106.014V33.7863H104.8Z" fill="black"/>
<path d="M112.301 33.0059H111.434V36.6696H112.301V33.0059Z" fill="black"/>
<path d="M117.742 35.2824L118.566 35.1523V35.4775C118.566 35.8027 118.783 35.9544 119.043 35.9544C119.325 35.9544 119.498 35.7593 119.498 35.4775V32.9844H120.365V35.4991C120.365 36.1712 119.823 36.7132 119.065 36.7132C118.306 36.7132 117.764 36.2362 117.764 35.4991V35.2824H117.742Z" fill="black"/>
<path d="M126.066 36.6696V33.0059H127.476C128.646 33.0059 129.427 33.6996 129.427 34.8486C129.427 35.9976 128.646 36.6696 127.476 36.6696H126.066ZM127.432 35.8892C128.018 35.8892 128.516 35.564 128.516 34.8269C128.516 34.0898 128.039 33.7646 127.432 33.7646H126.934V35.8892H127.432Z" fill="black"/>
<path d="M145.535 33.0059H146.467L145.058 36.6696H144.147L142.738 33.0059H143.692L144.624 35.5857L145.535 33.0059Z" fill="black"/>
<path d="M154.163 35.911H152.667L152.385 36.6481H151.475L152.927 32.9844H153.924L155.355 36.6481H154.445L154.163 35.911ZM152.949 35.174H153.881L153.426 33.9166L152.949 35.174Z" fill="black"/>
<path d="M162.053 35.2171L161.619 35.6724V36.6696H160.752V33.0059H161.619V34.5451L163.028 33.0059H164.156L162.66 34.5884L164.177 36.6696H163.093L162.053 35.2171Z" fill="black"/>
<path d="M173.868 33.0059H174.757L173.695 36.6696H172.806L171.982 34.2416L171.158 36.6696H170.248L169.186 33.0059H170.118L170.746 35.3472L171.549 33.0059H172.437L173.24 35.3472L173.868 33.0059Z" fill="black"/>
<path d="M180.133 36.6696V33.0059H182.583V33.7646H181V34.4584H182.431V35.1738H181V35.8892H182.583V36.6696H180.133Z" fill="black"/>
<path d="M189.391 35.3038H189.088V36.6696H188.221V33.0059H189.76C190.519 33.0059 191.017 33.5045 191.017 34.1548C191.017 34.6535 190.735 35.022 190.259 35.1954L191.039 36.6696H190.085L189.391 35.3038ZM189.586 34.5884C189.933 34.5884 190.128 34.3933 190.128 34.1548C190.128 33.873 189.933 33.7213 189.586 33.7213H189.088V34.6101H189.586V34.5884Z" fill="black"/>
<path d="M197.846 35.2171L197.412 35.6724V36.6696H196.545V33.0059H197.412V34.5451L198.821 33.0059H199.97L198.453 34.5884L199.97 36.6696H198.886L197.846 35.2171Z" fill="black"/>
</g>
<defs>
<clipPath id="clip0_3001_631">
<rect width="200" height="37" fill="white"/>
</clipPath>
</defs>
</svg>
