<svg width="26" height="26" viewBox="0 0 26 26" fill="none" xmlns="http://www.w3.org/2000/svg">
<path d="M22.75 10.5625H17.875V21.125H22.75C22.9655 21.125 23.1722 21.0394 23.3245 20.887C23.4769 20.7347 23.5625 20.528 23.5625 20.3125V11.375C23.5625 11.1595 23.4769 10.9528 23.3245 10.8005C23.1722 10.6481 22.9655 10.5625 22.75 10.5625V10.5625Z" stroke="#707070" stroke-width="2" stroke-linecap="round" stroke-linejoin="round"/>
<path d="M17.875 10.5625L13.8125 2.4375C13.3857 2.4375 12.9631 2.52156 12.5688 2.68489C12.1745 2.84822 11.8162 3.08761 11.5144 3.3894C11.2126 3.69119 10.9732 4.04947 10.8099 4.44378C10.6466 4.83809 10.5625 5.2607 10.5625 5.6875V8.125H4.27827C4.04786 8.125 3.82008 8.174 3.61005 8.26875C3.40001 8.3635 3.21253 8.50183 3.06004 8.67457C2.90756 8.84731 2.79354 9.0505 2.72558 9.27066C2.65761 9.49082 2.63724 9.72292 2.66582 9.95156L3.88457 19.7016C3.9337 20.0946 4.12467 20.4561 4.42159 20.7182C4.71852 20.9803 5.10095 21.125 5.49702 21.125H17.875" stroke="#707070" stroke-width="2" stroke-linecap="round" stroke-linejoin="round"/>
</svg>
