<svg width="28" height="28" viewBox="0 0 28 28" fill="none" xmlns="http://www.w3.org/2000/svg">
<path d="M23.625 0H4.375C1.95875 0 0 1.95875 0 4.375V23.625C0 26.0412 1.95875 28 4.375 28H23.625C26.0412 28 28 26.0412 28 23.625V4.375C28 1.95875 26.0412 0 23.625 0Z" fill="#0966C2"/>
<path d="M9.0425 22.6299H5.21167V10.5741H9.0425V22.6299ZM7.12708 8.88405C5.8877 8.88405 4.98633 7.98268 4.98633 6.74329C4.98633 5.50391 6.00037 4.60254 7.12708 4.60254C8.36647 4.60254 9.26784 5.50391 9.26784 6.74329C9.26784 7.98268 8.36647 8.88405 7.12708 8.88405ZM23.0137 22.6299H19.1829V16.095C19.1829 14.1796 18.3942 13.6162 17.2675 13.6162C16.1408 13.6162 15.0141 14.5176 15.0141 16.2077V22.6299H11.1832V10.5741H14.7887V12.2642C15.1267 11.4755 16.4788 10.2361 18.3942 10.2361C20.535 10.2361 22.7884 11.4755 22.7884 15.1936V22.6299H23.0137Z" fill="white"/>
</svg>
