<svg width="20" height="21" viewBox="0 0 20 21" fill="none" xmlns="http://www.w3.org/2000/svg">
<path d="M10 1.75C6.54961 1.75 3.75 4.26992 3.75 7.375C3.75 12.375 10 19.25 10 19.25C10 19.25 16.25 12.375 16.25 7.375C16.25 4.26992 13.4504 1.75 10 1.75ZM10 10.5C9.50555 10.5 9.0222 10.3534 8.61107 10.0787C8.19995 9.80397 7.87952 9.41352 7.6903 8.95671C7.50108 8.49989 7.45157 7.99723 7.54804 7.51227C7.6445 7.02732 7.8826 6.58186 8.23223 6.23223C8.58186 5.8826 9.02732 5.6445 9.51227 5.54804C9.99723 5.45157 10.4999 5.50108 10.9567 5.6903C11.4135 5.87952 11.804 6.19995 12.0787 6.61107C12.3534 7.0222 12.5 7.50555 12.5 8C12.4993 8.66282 12.2357 9.29828 11.767 9.76697C11.2983 10.2357 10.6628 10.4993 10 10.5Z" fill="#686F7B"/>
</svg>
