<svg width="14" height="17" viewBox="0 0 14 17" fill="none" xmlns="http://www.w3.org/2000/svg">
<path d="M13 7.16699C13 11.8337 7 15.8337 7 15.8337C7 15.8337 1 11.8337 1 7.16699C1 5.57569 1.63214 4.04957 2.75736 2.92435C3.88258 1.79913 5.4087 1.16699 7 1.16699C8.5913 1.16699 10.1174 1.79913 11.2426 2.92435C12.3679 4.04957 13 5.57569 13 7.16699Z" stroke="#686F7B" stroke-width="1.5" stroke-linecap="round" stroke-linejoin="round"/>
<path d="M7 9.16699C8.10457 9.16699 9 8.27156 9 7.16699C9 6.06242 8.10457 5.16699 7 5.16699C5.89543 5.16699 5 6.06242 5 7.16699C5 8.27156 5.89543 9.16699 7 9.16699Z" stroke="#686F7B" stroke-width="1.5" stroke-linecap="round" stroke-linejoin="round"/>
</svg>
