<svg width="200" height="28" viewBox="0 0 200 28" fill="none" xmlns="http://www.w3.org/2000/svg">
<g clip-path="url(#clip0_2001_9876)">
<path d="M57.924 8.19672V19.1257C57.924 21.2996 57.0604 23.3845 55.5232 24.9216C53.986 26.4588 51.9012 27.3224 49.7272 27.3224H30.6016V21.8579H49.7272C50.4519 21.8579 51.1468 21.5701 51.6592 21.0577C52.1716 20.5453 52.4595 19.8503 52.4595 19.1257V8.19672C52.4595 7.47209 52.1716 6.77713 51.6592 6.26474C51.1468 5.75234 50.4519 5.46448 49.7272 5.46448H36.066V16.3934H30.6016V0H49.7272C51.9012 0 53.986 0.863581 55.5232 2.40076C57.0604 3.93795 57.924 6.02282 57.924 8.19672Z" fill="#FEFEFE"/>
<path d="M68.8522 0H63.3877V27.3224H68.8522V0Z" fill="#FEFEFE"/>
<path d="M101.64 0V5.46448H90.7108V27.3224H85.2463V5.46448H74.3174V0H101.64Z" fill="#F08100"/>
<path d="M189.071 10.929V16.3934H178.142V27.3224H172.678V0H178.142V10.929H189.071ZM194.536 0V27.3224H200V0H194.536Z" fill="#F08100"/>
<path d="M167.213 21.8579V27.3224H148.087C145.913 27.3224 143.829 26.4588 142.291 24.9216C140.754 23.3845 139.891 21.2996 139.891 19.1257V10.929H145.355V19.1257C145.355 19.8503 145.643 20.5453 146.155 21.0577C146.668 21.5701 147.363 21.8579 148.087 21.8579H167.213ZM167.213 5.46448V6.33454e-08H148.087C146.392 -0.000210633 144.739 0.525188 143.354 1.50383C141.97 2.48248 140.923 3.86622 140.358 5.46448H167.213Z" fill="#F08100"/>
<path d="M112.568 16.3934V19.1257C112.568 19.8503 112.856 20.5453 113.368 21.0577C113.881 21.5701 114.576 21.8579 115.3 21.8579H134.426V27.3224H115.3C113.126 27.3224 111.041 26.4588 109.504 24.9216C107.967 23.3845 107.104 21.2996 107.104 19.1257V10.929H134.426V16.3934H112.568ZM134.426 5.46448V6.33454e-08H115.3C113.605 -0.000210633 111.951 0.525188 110.567 1.50383C109.183 2.48248 108.136 3.86622 107.571 5.46448H134.426Z" fill="#F08100"/>
<path d="M8.99349 17.9115L13.6613 5.46448L16.7891 13.8055C18.27 13.2172 19.7926 12.7401 21.3443 12.3781L16.3935 0H10.9148L1.31152 24.0306C2.38038 23.0142 3.78584 21.7607 5.47327 20.4404C6.49732 19.6415 7.67983 18.776 8.99349 17.9115Z" fill="#FEFEFE"/>
<path d="M0 27.3223C0 27.3223 9.56284 16.3934 21.8579 13.6611L25.1366 21.8579C7.52787 21.8579 0 27.3223 0 27.3223Z" fill="#F08100"/>
</g>
<defs>
<clipPath id="clip0_2001_9876">
<rect width="200" height="28" fill="white"/>
</clipPath>
</defs>
</svg>
