<svg width="32" height="32" viewBox="0 0 32 32" fill="none" xmlns="http://www.w3.org/2000/svg">
<g clip-path="url(#clip0_3002_6303)">
<path d="M19.0002 3.0002C19.0002 4.65645 17.6564 6.0002 16.0002 6.0002C14.3439 6.0002 13.0002 4.65645 13.0002 3.0002C13.0002 1.34395 14.3439 0.000195295 16.0002 0.000195295C17.6564 0.000195295 19.0002 1.34395 19.0002 3.0002ZM15.5002 22.0002V30.0002C15.5002 31.1064 14.6064 32.0002 13.5002 32.0002C12.3939 32.0002 11.5002 31.1064 11.5002 30.0002V16.0564L9.7127 19.0252C9.14395 19.9689 7.9127 20.2752 6.96895 19.7064C6.0252 19.1377 5.71895 17.9064 6.2877 16.9627L9.93145 10.9002C11.0189 9.09395 12.9689 7.9877 15.0752 7.9877H16.9314C19.0377 7.9877 20.9877 9.09395 22.0752 10.9002L25.7189 16.9627C26.2877 17.9064 25.9814 19.1377 25.0377 19.7064C24.0939 20.2752 22.8627 19.9689 22.2939 19.0252L20.5002 16.0564V30.0002C20.5002 31.1064 19.6064 32.0002 18.5002 32.0002C17.3939 32.0002 16.5002 31.1064 16.5002 30.0002V22.0002H15.5002ZM0.437695 0.437695C1.0252 -0.143555 1.9752 -0.143555 2.5627 0.437695L7.5627 5.4377C8.1502 6.0252 8.1502 6.9752 7.5627 7.55645C6.9752 8.1377 6.0252 8.14395 5.44395 7.55645L0.437695 2.5627C-0.143555 1.9752 -0.143555 1.0252 0.437695 0.437695ZM29.4377 0.437695C30.0252 -0.149805 30.9752 -0.149805 31.5564 0.437695C32.1377 1.0252 32.1439 1.9752 31.5564 2.55645L26.5564 7.55645C25.9689 8.14395 25.0189 8.14395 24.4377 7.55645C23.8564 6.96895 23.8502 6.01895 24.4377 5.4377L29.4377 0.437695ZM0.437695 31.5627C-0.149805 30.9752 -0.149805 30.0252 0.437695 29.4439L5.4377 24.4439C6.0252 23.8564 6.9752 23.8564 7.55645 24.4439C8.1377 25.0314 8.14395 25.9814 7.55645 26.5627L2.5627 31.5627C1.9752 32.1502 1.0252 32.1502 0.443945 31.5627H0.437695ZM29.4377 31.5627L24.4377 26.5627C23.8502 25.9752 23.8502 25.0252 24.4377 24.4439C25.0252 23.8627 25.9752 23.8564 26.5564 24.4439L31.5564 29.4439C32.1439 30.0314 32.1439 30.9814 31.5564 31.5627C30.9689 32.1439 30.0189 32.1502 29.4377 31.5627Z" fill="#2C5DFF"/>
</g>
<defs>
<clipPath id="clip0_3002_6303">
<rect width="32" height="32" fill="white"/>
</clipPath>
</defs>
</svg>
