<svg width="20" height="20" viewBox="0 0 20 20" fill="none" xmlns="http://www.w3.org/2000/svg">
<path d="M18.3342 14.1004V16.6004C18.3351 16.8325 18.2876 17.0622 18.1946 17.2749C18.1016 17.4875 17.9653 17.6784 17.7942 17.8353C17.6232 17.9922 17.4213 18.1116 17.2015 18.186C16.9816 18.2603 16.7486 18.288 16.5175 18.2671C13.9532 17.9884 11.49 17.1122 9.32584 15.7087C7.31236 14.4293 5.60529 12.7222 4.32584 10.7087C2.91749 8.53474 2.04104 6.05957 1.76751 3.48374C1.74668 3.2533 1.77407 3.02104 1.84792 2.80176C1.92178 2.58248 2.04048 2.38098 2.19648 2.21009C2.35247 2.0392 2.54234 1.90266 2.754 1.80917C2.96565 1.71569 3.19446 1.66729 3.42584 1.66707H5.92584C6.33026 1.66309 6.72233 1.80631 7.02897 2.07002C7.33562 2.33373 7.5359 2.69995 7.59251 3.10041C7.69802 3.90046 7.89371 4.68601 8.17584 5.44207C8.28796 5.74034 8.31222 6.0645 8.24576 6.37614C8.1793 6.68778 8.02489 6.97383 7.80084 7.20041L6.74251 8.25874C7.9288 10.345 9.65622 12.0724 11.7425 13.2587L12.8008 12.2004C13.0274 11.9764 13.3135 11.8219 13.6251 11.7555C13.9367 11.689 14.2609 11.7133 14.5592 11.8254C15.3152 12.1075 16.1008 12.3032 16.9008 12.4087C17.3056 12.4658 17.6753 12.6697 17.9396 12.9817C18.2039 13.2936 18.3443 13.6917 18.3342 14.1004Z" stroke="#F08100" stroke-width="1.5" stroke-linecap="round" stroke-linejoin="round"/>
</svg>
