<svg width="20" height="21" viewBox="0 0 20 21" fill="none" xmlns="http://www.w3.org/2000/svg">
<path d="M11.5868 2.5032C6.92192 2.37489 3.10016 6.12332 3.10016 10.7516H1.45965C1.04723 10.7516 0.845603 11.2465 1.13888 11.5306L3.69588 14.0968C3.87918 14.2801 4.16329 14.2801 4.34659 14.0968L6.90359 11.5306C6.96692 11.466 7.00971 11.3841 7.02656 11.2952C7.04342 11.2063 7.03359 11.1144 6.9983 11.0311C6.96302 10.9478 6.90386 10.8768 6.82829 10.8271C6.75273 10.7773 6.66412 10.7511 6.57365 10.7516H4.93314C4.93314 7.17729 7.84757 4.29035 11.4402 4.33617C14.8495 4.382 17.7181 7.2506 17.764 10.6599C17.8098 14.2434 14.9229 17.167 11.3486 17.167C9.87301 17.167 8.50744 16.6629 7.42598 15.8106C7.25044 15.6723 7.0302 15.6034 6.80714 15.6169C6.58408 15.6304 6.37378 15.7254 6.21622 15.8839C5.8313 16.2688 5.85879 16.9195 6.28954 17.2495C7.72953 18.3881 9.51283 19.0051 11.3486 19C15.9768 19 19.7252 15.1782 19.5969 10.5133C19.4778 6.21497 15.8852 2.62234 11.5868 2.5032ZM11.1194 7.08564C10.7437 7.08564 10.4321 7.39724 10.4321 7.773V11.1457C10.4321 11.4664 10.6062 11.7689 10.8811 11.9339L13.7406 13.6294C14.0705 13.8218 14.4921 13.7118 14.6846 13.3911C14.877 13.0611 14.767 12.6396 14.4463 12.4471L11.8068 10.8799V7.76384C11.8068 7.39724 11.4952 7.08564 11.1194 7.08564Z" fill="#686F7B"/>
</svg>
