<svg width="30" height="30" viewBox="0 0 30 30" fill="none" xmlns="http://www.w3.org/2000/svg">
<path d="M16.7667 13.234L6.25444 23.7462M7.38893 16.117L2.23986 14.9008C1.67336 14.7669 1.47412 14.0636 1.8845 13.6518L5.97937 9.55691C6.25444 9.28183 6.62765 9.12422 7.0187 9.12125L11.6355 9.08111M17.4507 3.79822C20.8868 6.14154 23.8591 9.11382 26.2024 12.55M13.8821 22.6117L15.0984 27.7608C15.2322 28.3273 15.9355 28.5265 16.3474 28.1162L20.4423 24.0213C20.7173 23.7462 20.8749 23.373 20.8779 22.982L20.9181 18.3652M27.0842 10.1338L28.2856 4.35283C28.6127 2.77971 27.2209 1.38799 25.6478 1.7151L19.8668 2.9165C18.1644 3.27038 16.6031 4.11344 15.375 5.34309L10.6318 10.0848C8.82228 11.8943 7.64467 14.2406 7.27295 16.7727L7.2566 16.8813C7.02167 18.4975 7.5629 20.1286 8.71672 21.2839C9.87054 22.4378 11.5031 22.979 13.1194 22.7426L13.2279 22.7262C15.7601 22.356 18.1064 21.1769 19.9159 19.3673L24.6576 14.6257C25.8872 13.3975 26.7303 11.8363 27.0842 10.1338Z" stroke="#2C5DFF" stroke-width="3" stroke-linecap="round" stroke-linejoin="round"/>
</svg>
