<svg width="32" height="26" viewBox="0 0 32 26" fill="none" xmlns="http://www.w3.org/2000/svg">
<path d="M12.8 16.8H12.799C12.799 15.991 12.866 16.3635 8.5465 7.7245C7.664 5.96 5.137 5.9565 4.253 7.7245C-0.103 16.4375 0.001 16.0165 0.001 16.8H0C0 19.009 2.8655 20.8 6.4 20.8C9.9345 20.8 12.8 19.009 12.8 16.8ZM6.4 8.8L10 16H2.8L6.4 8.8ZM31.999 16.8C31.999 15.991 32.066 16.3635 27.7465 7.7245C26.864 5.96 24.337 5.9565 23.453 7.7245C19.097 16.4375 19.201 16.0165 19.201 16.8H19.2C19.2 19.009 22.0655 20.8 25.6 20.8C29.1345 20.8 32 19.009 32 16.8H31.999ZM22 16L25.6 8.8L29.2 16H22ZM26.4 22.4H17.6V7.6625C18.7755 7.148 19.658 6.0885 19.9195 4.8H26.4C26.842 4.8 27.2 4.442 27.2 4V2.4C27.2 1.958 26.842 1.6 26.4 1.6H19.182C18.452 0.634 17.3045 0 16 0C14.6955 0 13.548 0.634 12.818 1.6H5.6C5.158 1.6 4.8 1.958 4.8 2.4V4C4.8 4.442 5.158 4.8 5.6 4.8H12.0805C12.342 6.088 13.224 7.148 14.4 7.6625V22.4H5.6C5.158 22.4 4.8 22.758 4.8 23.2V24.8C4.8 25.242 5.158 25.6 5.6 25.6H26.4C26.842 25.6 27.2 25.242 27.2 24.8V23.2C27.2 22.758 26.842 22.4 26.4 22.4Z" fill="#2C5DFF"/>
</svg>
